<svg width="50" height="50" viewBox="0 0 50 50" fill="none" xmlns="http://www.w3.org/2000/svg">
<g id="Group 770728">
<rect id="Rectangle 4275" width="50" height="50" rx="12" fill="#D9D9D9" fill-opacity="0.5"/>
<g id="Group">
<path id="Vector" d="M25 17.5C25.8284 17.5 26.5 16.8284 26.5 16C26.5 15.1716 25.8284 14.5 25 14.5C24.1716 14.5 23.5 15.1716 23.5 16C23.5 16.8284 24.1716 17.5 25 17.5Z" fill="#0189CF" fill-opacity="0.5"/>
<path id="Vector_2" d="M11 21.4999H38.9997C39.8967 21.4999 40.6837 20.9029 40.9257 20.0389C41.1677 19.1749 40.8047 18.2559 40.0382 17.7904L26.0383 9.2905C25.7188 9.0965 25.3593 9 24.9998 9C24.6403 9 24.2809 9.0965 23.9619 9.2905L9.96198 17.7904C9.19549 18.2559 8.832 19.1754 9.07449 20.0389C9.31599 20.9029 10.103 21.4999 11 21.4999ZM24.9998 13.5C26.3808 13.5 27.4998 14.6189 27.4998 15.9999C27.4998 17.3809 26.3808 18.4999 24.9998 18.4999C23.6189 18.4999 22.4999 17.3809 22.4999 15.9999C22.4999 14.6189 23.6189 13.5 24.9998 13.5Z" fill="#0189CF" fill-opacity="0.5"/>
<path id="Vector_3" d="M30 22.5H26V34.9999H30V22.5Z" fill="#0189CF" fill-opacity="0.5"/>
<path id="Vector_4" d="M36 22.5H32V34.9999H36V22.5Z" fill="#0189CF" fill-opacity="0.5"/>
<path id="Vector_5" d="M24 22.5H20V34.9999H24V22.5Z" fill="#0189CF" fill-opacity="0.5"/>
<path id="Vector_6" d="M18 22.5H14V34.9999H18V22.5Z" fill="#0189CF" fill-opacity="0.5"/>
<path id="Vector_7" d="M11 37.9997H38.9997C38.9997 36.8952 38.1043 35.9998 36.9998 35.9998H13C11.8955 35.9998 11 36.8952 11 37.9997Z" fill="#0189CF" fill-opacity="0.5"/>
<path id="Vector_8" d="M40.7222 38.9998H9.2775C9.1055 39.2953 9 39.6338 9 39.9997V40.9997H40.9997V39.9997C40.9997 39.6338 40.8942 39.2953 40.7222 38.9998Z" fill="#0189CF" fill-opacity="0.5"/>
</g>
</g>
</svg>
