<svg width="50" height="50" viewBox="0 0 50 50" fill="none" xmlns="http://www.w3.org/2000/svg">
<rect width="50" height="50" rx="12" fill="#D9D9D9" fill-opacity="0.5"/>
<path d="M9 19.6667H19.6667V9H9V19.6667ZM10.7778 10.7778H17.8889V17.8889H10.7778V10.7778ZM12.5556 12.5556H16.1111V16.1111H12.5556V12.5556ZM30.3333 19.6667H41V9H30.3333V19.6667ZM32.1111 10.7778H39.2222V17.8889H32.1111V10.7778ZM33.8889 12.5556H37.4444V16.1111H33.8889V12.5556ZM9 41H19.6667V30.3333H9V41ZM10.7778 32.1111H17.8889V39.2222H10.7778V32.1111ZM12.5556 33.8889H16.1111V37.4444H12.5556V33.8889ZM39.2222 37.4444H41V41H37.4444V35.6667H39.2222V37.4444ZM39.2222 32.1111H41V33.8889H39.2222V32.1111ZM39.2222 30.3333V32.1111H37.4444V30.3333H39.2222ZM21.4444 33.8889H23.2222V41H21.4444V33.8889ZM14.3333 21.4444V25H10.7778V23.2222H9V21.4444H14.3333ZM21.4444 16.1111H23.2222V17.8889H21.4444V16.1111ZM26.7778 10.7778V14.3333H25V9H28.5556V10.7778H26.7778ZM21.4444 10.7778H23.2222V12.5556H21.4444V10.7778ZM39.2222 25H41V28.5556H37.4444V26.7778H39.2222V25ZM37.4444 21.4444V23.2222H33.8889V26.7778H30.3333V25H32.1111V21.4444H37.4444ZM25 28.5556H23.2222V26.7778H21.4444V25H25V28.5556ZM35.6667 32.1111H37.4444V33.8889H35.6667V32.1111ZM39.2222 23.2222V25H37.4444V23.2222H39.2222ZM23.2222 28.5556V30.3333H21.4444V28.5556H23.2222ZM33.8889 37.4444H35.6667V41H32.1111V37.4444H33.8889ZM28.5556 37.4444H30.3333V39.2222H28.5556V41H25V39.2222H26.7778V37.4444H28.5556ZM28.5556 35.6667V33.8889H32.1111V35.6667H28.5556ZM28.5556 26.7778H30.3333V32.1111H28.5556V33.8889H26.7778V35.6667H25V32.1111H23.2222V30.3333H28.5556V28.5556H26.7778V26.7778H28.5556ZM12.5556 26.7778V28.5556H10.7778V26.7778H12.5556ZM33.8889 33.8889H32.1111V32.1111H33.8889V33.8889ZM35.6667 30.3333H32.1111V28.5556H35.6667V30.3333ZM17.8889 21.4444H19.6667V23.2222H17.8889V25H19.6667V28.5556H17.8889V26.7778H16.1111V28.5556H14.3333V25H16.1111V21.4444H17.8889ZM23.2222 21.4444V17.8889H28.5556V23.2222H25V21.4444H26.7778V19.6667H25V21.4444H23.2222ZM23.2222 14.3333H25V16.1111H23.2222V14.3333ZM21.4444 21.4444H23.2222V23.2222H21.4444V21.4444ZM26.7778 16.1111V14.3333H28.5556V16.1111H26.7778Z" fill="#0189CF"/>
</svg>
