<svg width="50" height="50" viewBox="0 0 50 50" fill="none" xmlns="http://www.w3.org/2000/svg">
<g id="Group 770728">
<rect id="Rectangle 4275" width="50" height="50" rx="12" fill="#D9D9D9" fill-opacity="0.5"/>
<g id="Group">
<g id="Group 770750">
<path id="Vector" d="M45 16.3C45 17.62 43.92 18.7 42.6 18.7H7.4C6.08 18.7 5 17.62 5 16.3V16.28C5 11.7 8.7 8 13.28 8H36.7C41.28 8 45 11.72 45 16.3Z" fill="#0189CF" fill-opacity="0.5"/>
<path id="Vector_2" d="M5 24.1031V34.1231C5 38.7031 8.7 42.4031 13.28 42.4031H36.7C41.28 42.4031 45 38.6831 45 34.1031V24.1031C45 22.7831 43.92 21.7031 42.6 21.7031H7.4C6.08 21.7031 5 22.7831 5 24.1031ZM17 35.7031H13C12.18 35.7031 11.5 35.0231 11.5 34.2031C11.5 33.3831 12.18 32.7031 13 32.7031H17C17.82 32.7031 18.5 33.3831 18.5 34.2031C18.5 35.0231 17.82 35.7031 17 35.7031ZM30 35.7031H22C21.18 35.7031 20.5 35.0231 20.5 34.2031C20.5 33.3831 21.18 32.7031 22 32.7031H30C30.82 32.7031 31.5 33.3831 31.5 34.2031C31.5 35.0231 30.82 35.7031 30 35.7031Z" fill="#0189CF" fill-opacity="0.5"/>
</g>
</g>
</g>
</svg>
