<svg width="50" height="50" viewBox="0 0 50 50" fill="none" xmlns="http://www.w3.org/2000/svg">
<g id="Group 770728">
<rect id="Rectangle 4275" width="50" height="50" rx="12" fill="#D9D9D9" fill-opacity="0.5"/>
<path id="Vector" fill-rule="evenodd" clip-rule="evenodd" d="M5 11.0122C5 10.4785 5.21071 9.96672 5.58579 9.58936C5.96086 9.212 6.46957 9 7 9H43C43.5304 9 44.0391 9.212 44.4142 9.58936C44.7893 9.96672 45 10.4785 45 11.0122V35.1585C45 36.7595 44.3679 38.295 43.2426 39.427C42.1174 40.5591 40.5913 41.1951 39 41.1951H11C9.4087 41.1951 7.88258 40.5591 6.75736 39.427C5.63214 38.295 5 36.7595 5 35.1585V11.0122ZM13 21.0732C13 20.5395 13.2107 20.0277 13.5858 19.6503C13.9609 19.273 14.4696 19.061 15 19.061H35C35.5304 19.061 36.0391 19.273 36.4142 19.6503C36.7893 20.0277 37 20.5395 37 21.0732C37 21.6068 36.7893 22.1186 36.4142 22.496C36.0391 22.8734 35.5304 23.0854 35 23.0854H15C14.4696 23.0854 13.9609 22.8734 13.5858 22.496C13.2107 22.1186 13 21.6068 13 21.0732ZM13 29.122C13 28.5883 13.2107 28.0765 13.5858 27.6991C13.9609 27.3218 14.4696 27.1098 15 27.1098H21C21.5304 27.1098 22.0391 27.3218 22.4142 27.6991C22.7893 28.0765 23 28.5883 23 29.122C23 29.6556 22.7893 30.1674 22.4142 30.5448C22.0391 30.9221 21.5304 31.1341 21 31.1341H15C14.4696 31.1341 13.9609 30.9221 13.5858 30.5448C13.2107 30.1674 13 29.6556 13 29.122Z" fill="#0189CF" fill-opacity="0.5"/>
</g>
</svg>
