<svg width="24" height="24" viewBox="0 0 24 24" fill="none" xmlns="http://www.w3.org/2000/svg">
<path id="Vector" d="M11.6667 0C18.1102 0 23.3333 5.22317 23.3333 11.6667C23.3333 18.1102 18.1102 23.3333 11.6667 23.3333C5.22317 23.3333 0 18.1102 0 11.6667C0 5.22317 5.22317 0 11.6667 0ZM11.6667 4.66667C11.3572 4.66667 11.0605 4.78958 10.8417 5.00838C10.6229 5.22717 10.5 5.52391 10.5 5.83333V11.6667C10.5001 11.9761 10.623 12.2728 10.8418 12.4915L14.3418 15.9915C14.5619 16.204 14.8566 16.3216 15.1625 16.319C15.4684 16.3163 15.761 16.1936 15.9773 15.9773C16.1936 15.761 16.3163 15.4684 16.319 15.1625C16.3216 14.8566 16.204 14.5619 15.9915 14.3418L12.8333 11.1837V5.83333C12.8333 5.52391 12.7104 5.22717 12.4916 5.00838C12.2728 4.78958 11.9761 4.66667 11.6667 4.66667Z" fill="#0189CF"/>
</svg>
