<svg width="123" height="113" viewBox="0 0 123 113" fill="none" xmlns="http://www.w3.org/2000/svg">
<g id="Group">
<path id="Vector" d="M119.957 90.8776C121.433 78.9038 112.917 68.0018 100.938 66.5274C88.959 65.0529 78.0522 73.5644 76.5772 85.5382C75.1021 97.512 83.6172 108.414 95.5964 109.888C107.576 111.363 118.482 102.851 119.957 90.8776Z" fill="#263238"/>
<g id="Group_2">
<path id="Vector_2" d="M98.3711 26.9304C98.3711 26.9304 105.075 16.0005 107.144 16.84C109.197 17.6796 105.806 28.0032 105.806 28.0032C105.806 28.0032 115.948 30.1176 114.05 32.6363C112.152 35.1706 99.771 34.5798 99.771 34.5798L98.3711 26.9149V26.9304Z" fill="#263238"/>
<path id="Vector_3" d="M103.084 54.9782C98.371 90.0223 68.8643 90.0223 68.8643 90.0223L6.92653 62.783C6.92653 62.783 2.26021 58.694 0.829201 49.2878C0.331459 46.0694 0.222578 42.2136 0.829201 37.6893C0.829201 37.6582 0.829201 37.6116 0.829201 37.5805C2.80461 22.8414 13.8327 6.99843 37.8487 2.13205C42.6395 1.13701 47.9591 0.608398 53.8231 0.608398C56.4985 0.608398 59.0805 0.732779 61.5537 0.997087C80.2968 2.81615 93.3003 11.5383 99.5376 25.0647C100.906 28.0343 101.933 31.2215 102.617 34.6264C103.893 40.7677 104.048 47.5775 103.068 54.9626L103.084 54.9782Z" fill="#263238"/>
</g>
</g>
</svg>
