<svg width="19" height="25" viewBox="0 0 19 25" fill="none" xmlns="http://www.w3.org/2000/svg">
<g id="Group">
<path id="Vector" d="M9.12 0.0195318C7.46667 0.0195318 5.94667 0.432865 4.56 1.25953C3.17333 2.0862 2.06667 3.19286 1.24 4.57953C0.413333 5.9662 0 7.4862 0 9.13953C0 11.1662 0.613333 13.0062 1.84 14.6595L8.64 23.7795C8.8 23.9395 8.98667 24.0195 9.2 24.0195C9.41333 24.0195 9.57333 23.9129 9.68 23.6995L16.56 14.4195C17.68 12.8729 18.24 11.1129 18.24 9.13953C18.24 7.4862 17.8267 5.9662 17 4.57953C16.1733 3.19286 15.0667 2.0862 13.68 1.25953C12.2933 0.432865 10.7733 0.0195318 9.12 0.0195318ZM9.12 14.0995C7.78667 14.0995 6.62667 13.6195 5.64 12.6595C4.65333 11.6995 4.16 10.5395 4.16 9.17953C4.16 7.81953 4.65333 6.65953 5.64 5.69953C6.62667 4.73953 7.78667 4.25953 9.12 4.25953C10.4533 4.25953 11.6133 4.73953 12.6 5.69953C13.5867 6.65953 14.08 7.81953 14.08 9.17953C14.08 10.5395 13.5867 11.6995 12.6 12.6595C11.6133 13.6195 10.4533 14.0995 9.12 14.0995Z" fill="#0089CF"/>
</g>
</svg>
