<svg width="24" height="19" viewBox="0 0 24 19" fill="none" xmlns="http://www.w3.org/2000/svg">
<path id="Vector" d="M21.84 19C22.3733 19 22.8533 18.8133 23.28 18.44L16.48 11.64L14.72 12.84C14.4 13.0533 13.9867 13.28 13.48 13.52C12.9733 13.76 12.48 13.88 12 13.88C11.52 13.88 11.0267 13.76 10.52 13.52C10.0133 13.28 9.6 13.0533 9.28 12.84L7.52 11.64L0.72 18.44C1.14667 18.8133 1.62667 19 2.16 19H21.84ZM1.36 7.4C0.826667 7.02667 0.373333 6.62667 0 6.2V16.52L6 10.6L1.36 7.4ZM22.64 7.4C20.8267 8.62667 19.28 9.69333 18 10.6L24 16.52V6.2C23.6267 6.62667 23.1733 7.02667 22.64 7.4ZM21.84 0.120001H2.16C1.46667 0.120001 0.933333 0.36 0.56 0.84C0.186667 1.32 0 1.90667 0 2.6C0 3.13333 0.24 3.73333 0.72 4.4C1.2 5.06667 1.73333 5.58667 2.32 5.96L10.56 11.64C10.8267 11.8 11.08 11.92 11.32 12C11.56 12.08 11.7867 12.12 12 12.12C12.2133 12.12 12.44 12.08 12.68 12C12.92 11.92 13.1733 11.8 13.44 11.64L14.16 11.24L21.68 5.96C22.3733 5.48 22.9333 4.92 23.36 4.28C23.7867 3.64 24 3 24 2.36C24 1.72 23.7867 1.18667 23.36 0.76C22.9333 0.333334 22.4267 0.120001 21.84 0.120001Z" fill="#0089CF"/>
</svg>
