<svg width="18" height="29" viewBox="0 0 18 29" fill="none" xmlns="http://www.w3.org/2000/svg">
<path id="Vector" d="M15.3 0H2.7C1.20937 0 0 1.20938 0 2.7V26.1C0 27.5906 1.20937 28.8 2.7 28.8H15.3C16.7906 28.8 18 27.5906 18 26.1V2.7C18 1.20938 16.7906 0 15.3 0ZM9 27C8.00437 27 7.2 26.1956 7.2 25.2C7.2 24.2044 8.00437 23.4 9 23.4C9.99562 23.4 10.8 24.2044 10.8 25.2C10.8 26.1956 9.99562 27 9 27ZM15.3 20.925C15.3 21.2963 14.9962 21.6 14.625 21.6H3.375C3.00375 21.6 2.7 21.2963 2.7 20.925V3.375C2.7 3.00375 3.00375 2.7 3.375 2.7H14.625C14.9962 2.7 15.3 3.00375 15.3 3.375V20.925Z" fill="#0189CF"/>
</svg>
