<svg width="24" height="24" viewBox="0 0 24 24" fill="none" xmlns="http://www.w3.org/2000/svg">
<g id="Frame" clip-path="url(#clip0_1_11756)">
<g id="Group">
<path id="Vector" d="M18.248 15.8395C17.8747 15.4662 17.4613 15.2795 17.008 15.2795C16.5547 15.2795 16.1147 15.4662 15.688 15.8395L13.928 17.6795C13.768 17.8395 13.608 17.8662 13.448 17.7595L12.248 17.1195C10.7013 16.1595 9.23467 14.8262 7.848 13.1195C7.10133 12.2129 6.568 11.3595 6.248 10.5595C6.19467 10.3462 6.22133 10.1862 6.328 10.0795L8.088 8.31955C8.51467 7.89288 8.728 7.45288 8.728 6.99955C8.728 6.54622 8.51467 6.10622 8.088 5.67955L5.288 2.87955C4.86133 2.50622 4.42133 2.31955 3.968 2.31955C3.51467 2.31955 3.10133 2.50622 2.728 2.87955L0.968 4.63955C0.381333 5.17288 0.0613333 5.83955 0.008 6.63955C-0.0453333 7.65288 0.168 8.82622 0.648 10.1595C1.448 12.3462 2.728 14.4795 4.488 16.5595C6.728 19.1729 9.368 21.2262 12.408 22.7195C13.9547 23.5195 15.3947 23.9462 16.728 23.9995C17.9013 24.0529 18.808 23.7062 19.448 22.9595L21.128 21.2795C21.5013 20.9062 21.688 20.4929 21.688 20.0395C21.688 19.5862 21.5013 19.1462 21.128 18.7195L18.248 15.8395ZM17.288 11.9195L19.128 11.5995C18.8613 9.89288 18.088 8.39955 16.808 7.11955C15.528 5.83955 13.9813 5.06622 12.168 4.79955L11.848 6.63955C13.288 6.85288 14.5013 7.45288 15.488 8.43955C16.4747 9.42622 17.0747 10.5862 17.288 11.9195ZM20.168 3.91955C18.0347 1.73288 15.448 0.426216 12.408 -0.000451124L12.168 1.83955C14.7813 2.21288 17.0213 3.33288 18.888 5.19955C20.648 6.95955 21.7413 9.09288 22.168 11.5995L24.008 11.2795C23.528 8.39955 22.248 5.94622 20.168 3.91955Z" fill="#0089CF"/>
</g>
</g>
<defs>
<clipPath id="clip0_1_11756">
<rect width="24" height="24" fill="white" transform="matrix(1 0 0 -1 0 24)"/>
</clipPath>
</defs>
</svg>
