<svg width="53" height="54" viewBox="0 0 53 54" fill="none" xmlns="http://www.w3.org/2000/svg">
<path id="Vector" d="M50.88 0.533447H2.12C0.947375 0.533447 0 1.48082 0 2.65345V51.4134C0 52.5861 0.947375 53.5334 2.12 53.5334H50.88C52.0526 53.5334 53 52.5861 53 51.4134V2.65345C53 1.48082 52.0526 0.533447 50.88 0.533447ZM16.96 42.4034C16.96 42.6949 16.7215 42.9334 16.43 42.9334H11.13C10.8385 42.9334 10.6 42.6949 10.6 42.4034V11.6634C10.6 11.3719 10.8385 11.1334 11.13 11.1334H16.43C16.7215 11.1334 16.96 11.3719 16.96 11.6634V42.4034ZM29.68 23.8534C29.68 24.1449 29.4415 24.3834 29.15 24.3834H23.85C23.5585 24.3834 23.32 24.1449 23.32 23.8534V11.6634C23.32 11.3719 23.5585 11.1334 23.85 11.1334H29.15C29.4415 11.1334 29.68 11.3719 29.68 11.6634V23.8534ZM42.4 28.6234C42.4 28.9149 42.1615 29.1534 41.87 29.1534H36.57C36.2785 29.1534 36.04 28.9149 36.04 28.6234V11.6634C36.04 11.3719 36.2785 11.1334 36.57 11.1334H41.87C42.1615 11.1334 42.4 11.3719 42.4 11.6634V28.6234Z" fill="#0189CF" fill-opacity="0.25"/>
</svg>
