<svg width="60" height="43" viewBox="0 0 60 43" fill="none" xmlns="http://www.w3.org/2000/svg">
<g id="quotes.b8d979d6032e97cc0eb5367abb55c33b.svg">
<path id="Vector" d="M49.4063 41.5196C47.5313 41.5196 46.0937 40.7182 45.0937 39.1153C44.0937 37.5098 44.0312 35.8579 44.9062 34.1593L48.75 26.4216H41.25C39.1875 26.4216 37.4225 25.6818 35.955 24.2022C34.485 22.7251 33.75 20.9485 33.75 18.8726V7.54902C33.75 5.47304 34.485 3.6965 35.955 2.21941C37.4225 0.739804 39.1875 0 41.25 0H52.5C54.5625 0 56.3287 0.739804 57.7987 2.21941C59.2662 3.6965 60 5.47304 60 7.54902V24.6287C60 25.1949 59.9525 25.7774 59.8575 26.3763C59.765 26.9727 59.5625 27.5225 59.25 28.0257L53.9062 38.6887C53.4687 39.5695 52.8437 40.2615 52.0312 40.7647C51.2187 41.268 50.3438 41.5196 49.4063 41.5196ZM15.6562 41.5196C13.7812 41.5196 12.3438 40.7182 11.3438 39.1153C10.3438 37.5098 10.2813 35.8579 11.1563 34.1593L15 26.4216H7.5C5.4375 26.4216 3.6725 25.6818 2.205 24.2022C0.735 22.7251 0 20.9485 0 18.8726V7.54902C0 5.47304 0.735 3.6965 2.205 2.21941C3.6725 0.739804 5.4375 0 7.5 0H18.75C20.8125 0 22.5787 0.739804 24.0487 2.21941C25.5162 3.6965 26.25 5.47304 26.25 7.54902V24.6287C26.25 25.1949 26.2037 25.7774 26.1112 26.3763C26.0162 26.9727 25.8125 27.5225 25.5 28.0257L20.1562 38.6887C19.7187 39.5695 19.0937 40.2615 18.2812 40.7647C17.4687 41.268 16.5937 41.5196 15.6562 41.5196Z" fill="#0189CF" fill-opacity="0.25"/>
</g>
</svg>
