<svg width="223" height="223" viewBox="0 0 223 223" fill="none" xmlns="http://www.w3.org/2000/svg">
<g id="Group">
<path id="Vector" d="M53.5833 0.5H0V54.0832H53.5833V0.5Z" fill="#0189CF"/>
<path id="Vector_2" d="M53.5833 0.5H68.917V8.16684H61.2501V15.8337H68.917V8.16684H84.2083V23.5006H68.917V38.7919H61.2501V61.7501H30.625V84.7507H38.2919V123H30.625V115.376H22.9582V107.709H30.625V92.3752H22.9582V69.4169H7.66684V84.7507H15.2914V92.3752H0V54.1256H53.5833V0.5Z" fill="white"/>
<path id="Vector_3" d="M68.9141 0.5H91.8723V8.16684H99.5391V0.5H107.206V15.8337H99.5391V23.5006H91.8723V38.7919H84.2054V31.1251H76.5386V38.7919H68.9141V23.5006H84.2054V8.16684H68.9141V0.5Z" fill="#0189CF"/>
<path id="Vector_4" d="M99.5457 0.5H91.8789V8.16684H99.5457V0.5Z" fill="white"/>
<path id="Vector_5" d="M107.199 0.5H114.824V8.16684H122.491V23.5006H114.824V15.8337H107.199V0.5Z" fill="white"/>
<path id="Vector_6" d="M122.499 0.5H114.832V8.16684H122.499V0.5Z" fill="#0189CF"/>
<path id="Vector_7" d="M122.508 0.5H137.799V15.8337H130.175V8.16684H122.508V0.5Z" fill="white"/>
<path id="Vector_8" d="M137.797 0.5H153.131V8.16684H145.464V15.8337H137.797V0.5Z" fill="#0189CF"/>
<path id="Vector_9" d="M153.117 0.5H168.408V54.1256H222.034V77.0838H214.367V61.7501H206.7V69.4169H183.742V61.7501H168.408V84.7507H160.784V69.4169H153.117V54.1256H160.784V46.4588H153.117V38.7919H160.784V31.1251H153.117V23.5006H160.784V8.16684H153.117V0.5Z" fill="white"/>
<path id="Vector_10" d="M222.009 0.5H168.426V54.0832H222.009V0.5Z" fill="#0189CF"/>
<path id="Vector_11" d="M45.9521 8.16699H7.66016V46.4589H45.9521V8.16699Z" fill="white"/>
<path id="Vector_12" d="M68.9168 8.16699H61.25V15.8339H68.9168V8.16699Z" fill="#0189CF"/>
<path id="Vector_13" d="M122.491 8.16699H130.157V15.8339H137.782V23.5007H130.157V31.1252H122.491V46.4589H114.824V54.1258H107.199V38.7921H114.824V31.1252H107.199V15.8339H114.824V23.5007H122.491V8.16699Z" fill="#0189CF"/>
<path id="Vector_14" d="M153.124 8.16699H145.457V15.8339H153.124V8.16699Z" fill="white"/>
<path id="Vector_15" d="M153.126 8.16699H160.793V23.5007H153.126V31.1252H145.459V38.7921H153.126V46.4589H145.459V54.1258H153.126V69.4171H160.793V84.7508H153.126V77.084H145.459V69.4171H137.792V61.7503H130.168V54.1258H137.792V23.5007H145.459V15.8339H153.126V8.16699Z" fill="#0189CF"/>
<path id="Vector_16" d="M214.378 8.16699H176.086V46.4589H214.378V8.16699Z" fill="white"/>
<path id="Vector_17" d="M38.2433 15.8335H15.2852V38.7917H38.2433V15.8335Z" fill="#0189CF"/>
<path id="Vector_18" d="M99.5435 15.8335H107.21V31.1248H99.5435V38.7917H107.21V54.1254H114.835V69.4167H107.21V77.0836H91.8767V69.4167H76.543V61.7499H99.5435V46.4586H91.8767V54.1254H84.2098V38.7917H91.8767V23.5004H99.5435V15.8335Z" fill="white"/>
<path id="Vector_19" d="M145.464 15.8335H137.797V23.5004H145.464V15.8335Z" fill="white"/>
<path id="Vector_20" d="M206.7 15.8335H183.742V38.7917H206.7V15.8335Z" fill="#0189CF"/>
<path id="Vector_21" d="M130.175 23.5007H137.799V54.1258H130.175V46.4589H122.508V31.1252H130.175V23.5007Z" fill="white"/>
<path id="Vector_22" d="M84.2098 31.125H76.543V38.7919H84.2098V31.125Z" fill="white"/>
<path id="Vector_23" d="M107.21 31.125H99.543V38.7919H107.21V31.125Z" fill="#0189CF"/>
<path id="Vector_24" d="M114.866 31.125H107.199V38.7919H114.866V31.125Z" fill="white"/>
<path id="Vector_25" d="M153.124 31.125H145.457V38.7919H153.124V31.125Z" fill="white"/>
<path id="Vector_26" d="M160.784 31.125H153.117V38.7919H160.784V31.125Z" fill="#0189CF"/>
<path id="Vector_27" d="M61.25 38.792H68.9168V54.1257H76.5414V38.792H84.2082V54.1257H91.875V46.4588H99.5419V61.7502H76.5414V69.417H68.9168V61.7502H61.25V38.792Z" fill="#0189CF"/>
<path id="Vector_28" d="M76.5809 38.792H68.9141V54.1257H76.5809V38.792Z" fill="white"/>
<path id="Vector_29" d="M122.499 46.4587H114.832V54.1256H122.499V46.4587Z" fill="white"/>
<path id="Vector_30" d="M130.175 46.4587H122.508V54.1256H130.175V46.4587Z" fill="#0189CF"/>
<path id="Vector_31" d="M153.124 46.4585H145.457V54.1254H153.124V46.4585Z" fill="white"/>
<path id="Vector_32" d="M160.784 46.4585H153.117V54.1254H160.784V46.4585Z" fill="#0189CF"/>
<path id="Vector_33" d="M114.824 54.1257H122.491V84.7508H114.824V77.0839H107.199V69.4171H114.824V54.1257Z" fill="#0189CF"/>
<path id="Vector_34" d="M122.504 54.126H130.171V61.7505H137.795V69.4173H130.171V84.751H137.795V92.3755H145.462V100.042H153.129V92.3755H145.462V77.0842H153.129V84.751H160.796V100.042H168.42V107.709H183.754V123.001H191.421V130.667H168.42V115.376H160.796V107.709H153.129V115.376H160.796V123.001H153.129V130.667H145.462V146.001H137.795V153.626H130.171V138.334H137.795V115.376H145.462V107.709H137.795V115.376H114.837V107.709H122.504V100.042H130.171V92.3755H122.504V100.042H114.837V107.709H107.213V100.042H99.5457V107.709H91.8789V92.3755H99.5457V84.751H107.213V92.3755H114.837V84.751H122.504V54.126Z" fill="white"/>
<path id="Vector_35" d="M30.625 61.75H61.2501V69.4168H68.9169V77.0837H61.2501V84.7506H68.9169V77.0837H76.5414V92.3751H68.9169V100.042H61.2501V92.3751H53.5833V84.7506H45.9163V77.0837H53.5833V69.4168H38.2919V84.7506H30.625V61.75Z" fill="#0189CF"/>
<path id="Vector_36" d="M68.9168 61.75H61.25V69.4168H68.9168V61.75Z" fill="white"/>
<path id="Vector_37" d="M168.421 61.7498H183.755V69.4166H206.713V61.7498H214.38V77.0835H176.088V92.3748H168.421V100.042H160.797V84.7503H168.421V61.7498Z" fill="#0189CF"/>
<path id="Vector_38" d="M7.66684 69.417H22.9582V92.3752H30.625V107.709H22.9582V115.376H30.625V123H38.2919V84.7507H45.9164V92.3752H53.5833V100.042H45.9164V107.709H53.5833V100.042H61.2501V107.709H76.5415V123H68.917V115.376H61.2501V123H53.5833V115.376H45.9164V123H53.5833V130.667H38.2919V138.334H15.2913V123H7.66684V138.334H0V92.3752H15.2913V84.7507H7.66684V69.417Z" fill="#0189CF"/>
<path id="Vector_39" d="M38.2891 69.417H53.5804V77.0839H45.9135V84.7507H38.2891V69.417Z" fill="white"/>
<path id="Vector_40" d="M76.5809 69.417H68.9141V77.0839H76.5809V69.417Z" fill="white"/>
<path id="Vector_41" d="M91.8343 69.417H76.543V77.0839H91.8343V69.417Z" fill="#0189CF"/>
<path id="Vector_42" d="M130.168 69.417H137.792V77.0839H145.459V92.3752H137.792V84.7507H130.168V69.417Z" fill="#0189CF"/>
<path id="Vector_43" d="M145.464 69.417H137.797V77.0839H145.464V69.417Z" fill="white"/>
<path id="Vector_44" d="M68.9168 77.0835H61.25V84.7503H68.9168V77.0835Z" fill="white"/>
<path id="Vector_45" d="M91.8343 77.0835H76.543V92.3748H91.8343V77.0835Z" fill="white"/>
<path id="Vector_46" d="M91.8789 77.0835H107.213V84.7503H99.5457V92.3748H91.8789V77.0835Z" fill="#0189CF"/>
<path id="Vector_47" d="M114.866 77.0835H107.199V84.7503H114.866V77.0835Z" fill="white"/>
<path id="Vector_48" d="M176.093 77.0835H214.385V92.3748H222.051V100.042H214.385V107.709H206.718V100.042H199.051V84.7503H191.426V100.042H168.426V92.3748H176.093V77.0835Z" fill="white"/>
<path id="Vector_49" d="M222.042 77.0835H214.375V92.3748H222.042V77.0835Z" fill="#0189CF"/>
<path id="Vector_50" d="M53.5849 84.7507H45.918V92.4176H53.5849V84.7507Z" fill="white"/>
<path id="Vector_51" d="M114.866 84.7505H107.199V92.4173H114.866V84.7505Z" fill="#0189CF"/>
<path id="Vector_52" d="M191.426 84.7505H199.051V100.042H206.718V107.709H214.385V100.042H222.051V130.667H214.385V115.376H199.051V107.709H191.426V123H183.76V107.709H168.426V100.042H191.426V84.7505Z" fill="#0189CF"/>
<path id="Vector_53" d="M61.2411 92.375H53.5742V100.042H61.2411V92.375Z" fill="white"/>
<path id="Vector_54" d="M68.917 92.375H76.5415V100.042H84.2083V123H91.8752V138.334H68.917V130.667H61.2501V146.001H53.5833V138.334H45.9164V146.001H53.5833V153.625H30.625V146.001H22.9582V161.292H61.2501V191.917H68.917V199.584H84.2083V207.251H76.5415V222.542H53.5833V168.959H0V161.292H15.2914V153.625H0V138.334H7.66684V123H15.2914V138.334H38.2919V130.667H53.5833V123H61.2501V115.376H68.917V123H76.5415V107.709H61.2501V100.042H68.917V92.375Z" fill="white"/>
<path id="Vector_55" d="M76.543 92.375H91.8767V107.709H99.5435V115.376H91.8767V123H84.2098V100.042H76.543V92.375Z" fill="#0189CF"/>
<path id="Vector_56" d="M130.175 92.3745H122.508V100.041H130.175V92.3745Z" fill="#0189CF"/>
<path id="Vector_57" d="M153.124 92.3745H145.457V100.041H153.124V92.3745Z" fill="#0189CF"/>
<path id="Vector_58" d="M15.327 100.042H7.66016V115.376H15.327V100.042Z" fill="white"/>
<path id="Vector_59" d="M53.5849 100.042H45.918V107.709H53.5849V100.042Z" fill="white"/>
<path id="Vector_60" d="M107.21 100.042H99.543V107.709H107.21V100.042Z" fill="#0189CF"/>
<path id="Vector_61" d="M122.499 100.042H114.832V107.709H122.499V100.042Z" fill="#0189CF"/>
<path id="Vector_62" d="M107.21 107.709H99.543V115.376H107.21V107.709Z" fill="white"/>
<path id="Vector_63" d="M114.866 107.709H107.199V115.376H114.866V107.709Z" fill="#0189CF"/>
<path id="Vector_64" d="M145.464 107.709H137.797V115.376H145.464V107.709Z" fill="#0189CF"/>
<path id="Vector_65" d="M160.784 107.709H153.117V115.376H160.784V107.709Z" fill="#0189CF"/>
<path id="Vector_66" d="M191.422 107.709H199.046V115.376H214.38V130.667H199.046V123H191.422V107.709Z" fill="white"/>
<path id="Vector_67" d="M53.5849 115.375H45.918V123.042H53.5849V115.375Z" fill="white"/>
<path id="Vector_68" d="M99.5457 115.375H91.8789V123.042H99.5457V115.375Z" fill="white"/>
<path id="Vector_69" d="M107.21 115.375H99.543V123.042H107.21V115.375Z" fill="#0189CF"/>
<path id="Vector_70" d="M114.866 115.375H107.199V123.042H114.866V115.375Z" fill="white"/>
<path id="Vector_71" d="M114.832 115.375H137.79V138.333H130.166V130.667H122.499V123H114.832V115.375Z" fill="#0189CF"/>
<path id="Vector_72" d="M160.784 115.375H168.408V130.667H153.117V123H160.784V115.375Z" fill="#0189CF"/>
<path id="Vector_73" d="M91.875 123H99.5419V130.667H107.209V123H114.833V130.667H122.5V138.334H114.833V146.001H107.209V138.334H99.5419V146.001H91.875V153.625H84.2082V146.001H76.5413V153.625H68.9168V146.001H61.25V130.667H68.9168V138.334H91.875V123Z" fill="#0189CF"/>
<path id="Vector_74" d="M107.21 123H99.543V130.667H107.21V123Z" fill="white"/>
<path id="Vector_75" d="M122.499 123H114.832V130.667H122.499V123Z" fill="white"/>
<path id="Vector_76" d="M199.089 123H191.422V130.667H199.089V123Z" fill="#0189CF"/>
<path id="Vector_77" d="M130.175 130.667H122.508V138.333H130.175V130.667Z" fill="white"/>
<path id="Vector_78" d="M145.459 130.667H153.126V146H160.793V153.625H168.418V130.667H191.418V138.333H176.084V146H199.043V153.625H191.418V168.958H199.043V191.917H206.709V184.25H214.376V168.958H206.709V146H214.376V138.333H222.043V153.625H214.376V161.292H222.043V191.917H214.376V199.583H222.043V214.875H214.376V222.542H206.709V207.25H199.043V199.583H191.418V191.917H160.793V199.583H137.793V207.25H122.501V214.875H114.834V222.542H107.21V214.875H99.543V207.25H107.21V184.25H137.793V191.917H145.459V184.25H137.793V168.958H145.459V161.292H153.126V153.625H145.459V161.292H130.168V153.625H137.793V146H145.459V130.667Z" fill="#0189CF"/>
<path id="Vector_79" d="M153.117 130.667H168.408V153.625H160.784V146H153.117V130.667Z" fill="white"/>
<path id="Vector_80" d="M191.42 130.667H199.044V146H176.086V138.333H191.42V130.667Z" fill="white"/>
<path id="Vector_81" d="M199.035 130.667H214.369V138.333H206.702V146H199.035V130.667Z" fill="#0189CF"/>
<path id="Vector_82" d="M222.042 130.667H214.375V138.333H222.042V130.667Z" fill="white"/>
<path id="Vector_83" d="M53.5849 138.334H45.918V146.001H53.5849V138.334Z" fill="#0189CF"/>
<path id="Vector_84" d="M99.5419 138.334H107.209V146.001H114.833V161.292H107.209V153.625H99.5419V161.292H61.25V146.001H68.9168V153.625H76.5414V146.001H84.2082V153.625H91.875V146.001H99.5419V138.334Z" fill="white"/>
<path id="Vector_85" d="M122.499 138.334H114.832V146.001H122.499V138.334Z" fill="white"/>
<path id="Vector_86" d="M122.499 138.334H130.166V153.625H122.499V161.292H114.832V146.001H122.499V138.334Z" fill="#0189CF"/>
<path id="Vector_87" d="M214.378 138.334H206.711V146.001H214.378V138.334Z" fill="white"/>
<path id="Vector_88" d="M22.9648 146H30.6317V153.625H53.5899V146H61.2568V161.292H22.9648V146Z" fill="#0189CF"/>
<path id="Vector_89" d="M199.046 146H206.713V168.959H214.38V184.25H206.713V191.917H199.046V168.959H191.422V153.625H199.046V146Z" fill="white"/>
<path id="Vector_90" d="M15.2914 153.625H0V161.292H15.2914V153.625Z" fill="#0189CF"/>
<path id="Vector_91" d="M99.5419 153.625H107.209V161.292H114.833V168.959H122.5V176.626H107.209V168.959H99.5419V176.626H84.2082V168.959H76.5413V176.626H68.9168V184.25H76.5413V191.917H99.5419V207.251H91.875V214.875H84.2082V222.542H76.5413V207.251H84.2082V199.584H68.9168V191.917H61.25V161.292H99.5419V153.625Z" fill="#0189CF"/>
<path id="Vector_92" d="M130.175 153.625H122.508V161.292H130.175V153.625Z" fill="white"/>
<path id="Vector_93" d="M153.124 153.625H145.457V161.292H153.124V153.625Z" fill="white"/>
<path id="Vector_94" d="M222.042 153.625H214.375V161.292H222.042V153.625Z" fill="white"/>
<path id="Vector_95" d="M122.499 161.292H114.832V168.958H122.499V161.292Z" fill="white"/>
<path id="Vector_96" d="M130.175 161.292H122.508V168.958H130.175V161.292Z" fill="#0189CF"/>
<path id="Vector_97" d="M130.164 161.292H145.455V168.958H137.789V184.25H107.206V207.25H99.5391V191.917H76.5386V184.25H68.9141V176.625H76.5386V168.958H84.2054V176.625H99.5391V168.958H107.206V176.625H122.497V168.958H130.164V161.292Z" fill="white"/>
<path id="Vector_98" d="M183.755 161.292H160.797V184.25H183.755V161.292Z" fill="white"/>
<path id="Vector_99" d="M53.5833 168.958H0V222.542H53.5833V168.958Z" fill="#0189CF"/>
<path id="Vector_100" d="M176.093 168.958H168.426V176.625H176.093V168.958Z" fill="#0189CF"/>
<path id="Vector_101" d="M45.9521 176.625H7.66016V214.917H45.9521V176.625Z" fill="white"/>
<path id="Vector_102" d="M38.2433 184.25H15.2852V207.208H38.2433V184.25Z" fill="#0189CF"/>
<path id="Vector_103" d="M145.464 184.25H137.797V191.917H145.464V184.25Z" fill="white"/>
<path id="Vector_104" d="M160.797 191.917H191.423V199.583H199.047V207.25H183.756V222.542H160.797V214.875H145.464V207.25H137.797V199.583H160.797V207.25H168.422V214.875H176.089V207.25H168.422V199.583H160.797V191.917Z" fill="white"/>
<path id="Vector_105" d="M222.042 191.917H214.375V199.583H222.042V191.917Z" fill="white"/>
<path id="Vector_106" d="M168.464 199.583H160.797V207.25H168.464V199.583Z" fill="#0189CF"/>
<path id="Vector_107" d="M99.5457 207.25H91.8789V214.917H99.5457V207.25Z" fill="white"/>
<path id="Vector_108" d="M137.799 207.25H122.508V214.917H137.799V207.25Z" fill="white"/>
<path id="Vector_109" d="M137.799 207.25H145.466V214.875H160.8V222.542H122.508V214.875H137.799V207.25Z" fill="#0189CF"/>
<path id="Vector_110" d="M176.093 207.25H168.426V214.917H176.093V207.25Z" fill="#0189CF"/>
<path id="Vector_111" d="M199.034 207.25H183.742V222.542H199.034V207.25Z" fill="#0189CF"/>
<path id="Vector_112" d="M206.702 207.25H199.035V222.542H206.702V207.25Z" fill="white"/>
<path id="Vector_113" d="M91.87 214.875H84.2031V222.542H91.87V214.875Z" fill="white"/>
<path id="Vector_114" d="M99.5457 214.875H91.8789V222.542H99.5457V214.875Z" fill="#0189CF"/>
<path id="Vector_115" d="M107.21 214.875H99.543V222.542H107.21V214.875Z" fill="white"/>
<path id="Vector_116" d="M122.499 214.875H114.832V222.542H122.499V214.875Z" fill="white"/>
<path id="Vector_117" d="M222.042 214.875H214.375V222.542H222.042V214.875Z" fill="white"/>
</g>
</svg>
